#!OML:ASF H:\Dans Jumps\Project 1\Capture day 1\Session 1\subject.ASF
:FULLY-SPECIFIED
:DEGREES
326
root 0.31206 19.0083 -6.58321 7.80319 4.80517 -0.257244
lowerback -4.20616 -0.585477 -0.830211
upperback 2.09707 -0.800033 1.62664
thorax 4.5621 -0.448374 2.08383
lowerneck -8.95888 -0.54428 -2.6456
upperneck 23.3775 -0.438259 0.771372
head 8.77037 -0.348942 0.666694
rclavicle -4.27387e-015 5.1684e-015
rhumerus -22.1308 -9.74968 -80.833
rradius 29.6328
rwrist 28.8158
rhand -21.0323 -25.3503
rfingers 7.12502
rthumb 5.34313 -55.263
lclavicle -4.27387e-015 5.1684e-015
lhumerus -19.0082 -5.89669 89.1118
lradius 22.7865
lwrist 17.3717
lhand -27.4078 -7.85117
lfingers 7.12502
lthumb -0.814001 22.127
rfemur -5.01256 -2.96726 18.4828
rtibia 38.2889
rfoot 25.2524 -11.0879
rtoes 15.806
lfemur -12.6509 0.505534 -16.0149
ltibia 45.8569
lfoot 30.2133 -1.2825
ltoes 0.1742
327
root 0.312485 19.159 -6.38667 7.70726 5.03404 -0.349477
lowerback -4.50159 -0.637456 -0.819642
upperback 2.12769 -0.872072 1.66324
thorax 4.76556 -0.486046 2.10763
lowerneck -8.92177 -0.581942 -2.64637
upperneck 23.616 -0.517998 0.884622
head 8.84702 -0.376188 0.697971
rclavicle -1.04859e-014 1.11319e-014
rhumerus -22.4746 -9.68479 -80.8454
rradius 30.0644
rwrist 28.6327
rhand -20.9762 -25.3442
rfingers 7.12502
rthumb 5.39731 -55.2555
lclavicle -1.04859e-014 1.11319e-014
lhumerus -19.3081 -5.8155 89.2093
lradius 22.8375
lwrist 17.8131
lhand -27.2603 -7.75423
lfingers 7.12502
lthumb -0.671523 22.2245
rfemur -5.99437 -2.85326 18.632
rtibia 39.5662
rfoot 26.8007 -10.9914
rtoes 19.8362
lfemur -13.6883 0.446817 -16.0242
ltibia 47.1045
lfoot 29.848 -1.49353
ltoes 1.17125
328
root 0.311808 19.296 -6.20183 7.57581 5.21829 -0.455506
lowerback -4.58731 -0.670763 -0.8025
upperback 2.19406 -0.920364 1.70608
thorax 4.88624 -0.51151 2.1375
lowerneck -8.96066 -0.617224 -2.65944
upperneck 23.7783 -0.590547 0.99811
head 8.91184 -0.400399 0.731876
rclavicle 1.0138e-014 1.98785e-014
rhumerus -22.7733 -9.65126 -80.8693
rradius 30.476
rwrist 28.4732
rhand -20.9466 -25.3676
rfingers 7.12502
rthumb 5.42589 -55.2782
lclavicle 1.0138e-014 1.98785e-014
lhumerus -19.5631 -5.72332 89.2987
lradius 22.8985
lwrist 18.3217
lhand -27.135 -7.65869
lfingers 7.12502
lthumb -0.550461 22.3203
rfemur -7.10564 -2.7825 18.8074
rtibia 41.0199
rfoot 27.312 -10.7408
rtoes 22.1086
lfemur -14.839 0.531888 -16.0463
ltibia 48.5264
lfoot 28.8674 -1.42191
ltoes 1.63422
329
root 0.310276 19.421 -6.02676 7.36722 5.34968 -0.563254
lowerback -4.43824 -0.685904 -0.787873
upperback 2.30504 -0.944606 1.74944
thorax 4.91896 -0.524875 2.17329
lowerneck -9.05717 -0.64608 -2.66531
upperneck 23.8818 -0.649543 1.09237
head 8.96704 -0.419062 0.759157
rclavicle -2.6339e-015 1.74931e-014
rhumerus -23.0206 -9.64167 -80.9101
rradius 30.838
rwrist 28.3298
rhand -20.9418 -25.4041
rfingers 7.12502
rthumb 5.43051 -55.3145
lclavicle -2.6339e-015 1.74931e-014
lhumerus -19.7884 -5.62732 89.377
lradius 22.9605
lwrist 18.8505
lhand -27.0462 -7.59532
lfingers 7.12502
lthumb -0.464743 22.3839
rfemur -8.25915 -2.7484 18.9818
rtibia 42.5491
rfoot 27.0657 -10.618
rtoes 23.2549
lfemur -15.9979 0.725325 -16.0895
ltibia 49.9896
lfoot 27.7194 -1.05079
ltoes 2.1204
